<svg fill="currentColor" width="64px" height="64px" viewBox="-57.6 -57.6 2035.20 2035.20" xmlns="http://www.w3.org/2000/svg" transform="matrix(-1, 0, 0, 1, 0, 0)" stroke="currentColor" stroke-width="0.019200000000000002"><g id="SVGRepo_bgCarrier" stroke-width="0" transform="translate(960,960), scale(0)"><rect x="-57.6" y="-57.6" width="2035.20" height="2035.20" rx="1017.6" fill="currentColor" strokewidth="0"></rect></g><g id="SVGRepo_tracerCarrier" stroke-linecap="round" stroke-linejoin="round" stroke="currentColor" stroke-width="199.68"> <path d="M694.018 926.244c-27.296 18.796-27.3 49.269 0 68.067l509.836 351.074c27.296 18.797 49.424 7.18 49.424-25.959V601.13c0-33.133-22.125-44.757-49.424-25.959L694.018 926.244Z" fill-rule="evenodd"></path> </g><g id="SVGRepo_iconCarrier"> <path d="M694.018 926.244c-27.296 18.796-27.3 49.269 0 68.067l509.836 351.074c27.296 18.797 49.424 7.18 49.424-25.959V601.13c0-33.133-22.125-44.757-49.424-25.959L694.018 926.244Z" fill-rule="evenodd"></path> </g></svg>